<?xml version="1.0"?><svg width="1280" height="1024" xmlns="http://www.w3.org/2000/svg">
 <metadata id="metadata7">image/svg+xml</metadata>
 <g>
  <title>Layer 1</title>
  <g id="layer1">
   <g id="g2955" transform="matrix(0.61985218,0,0,0.61985218,664.01244,171.15896) ">
    <path id="path3801" d="m156.125,187.26207c-35.035149,0.266434 -68.694542,30.194397 -74.90625,73.218765c-4.120911,28.542694 -0.170097,48.239655 14.71875,74.093719c5.745743,10.384125 20.364166,34.403717 32.84375,45.875c1.468628,1.349976 1.423111,5.082367 -1.6875,3.96875c-21.751312,-5.733887 -46.266502,-4.638763 -74.78125,0.875l5.625,3.375c69.804024,-10.47113 119.604294,26.532227 148.09375,72.125c2.129745,-0.156738 4.298981,-0.25 6.46875,-0.25c0.725174,0 1.436493,0.012909 2.15625,0.031189c-0.015396,-0.5 -0.031204,-0.996246 -0.031204,-1.5c0,-2.683746 0.2332,-5.311096 0.65625,-7.875c-10.734543,-14.910217 -23.595078,-29.352203 -38.40625,-42.5625c-19.055176,-16.995575 -56.451805,-77.37793 -36.65625,-93.9375c19.961548,-16.698395 52.524597,1.947174 44,25.5625c-3.857498,10.686279 -16.625732,12.119598 -13.15625,3.75c4.072845,-9.825134 -6.76593,-18.999634 -18.53125,-9.75c-8.569427,6.737183 1.934738,20.693268 12.125,23.09375c14.615082,3.442902 28.228607,-9.299164 26.96875,-26.75c-1.433472,-19.855774 -33.442368,-35.466248 -51.6875,-21.25c-18.245125,14.216248 -8.17778,43.426727 1.78125,65.34375c4.825592,10.619781 0.23317,10.082581 -6.40625,3.28125c-18.087433,-18.528534 -25.914734,-29.126129 -36.437492,-49.96875c-7.68589,-15.223572 -8.383224,-30.218628 -5.15625,-38.03125c5.143867,-12.453156 14.544006,-15.434601 21.03125,-6.687469c6.31073,8.509155 11.196396,9.758636 13.906242,3.656219c3.166977,-7.131622 -7.945145,-18.096161 -17.093742,-16.874969c-13.573204,1.81189 -21.497284,8.665283 -23.28125,20.218719l-1.75,11.1875l-1.96875,-14.34375c-2.543297,-18.301849 3.701416,-38.687271 14.40625,-47.124985c11.959015,-9.426117 28.686707,-4.712738 40.406242,11.40625c10.008179,13.765274 18.529175,17.292801 22.15625,9.125015c5.203796,-11.718277 -18.838852,-33.504898 -37.906242,-34.34375c-8.765106,-0.385712 -14.197433,1.058395 -20.59375,5.53125c-13.960236,9.76207 -13.201401,5.348465 1.6875,-9.84375c22.479927,-22.937866 42.653389,-24.836761 70.156242,-6.5c16.866669,11.245483 27.4897,9.112396 25.1875,-5.09375c-0.13797,-0.8517 -0.309586,-1.671646 -0.53125,-2.4375c-1.551041,-5.361343 -5.34697,-8.835052 -14.21875,-13.46875c-9.45726,-4.939499 -19.377655,-7.1996 -29.1875,-7.125l-0.000046,0.000046zm275.96875,273.375015c-2.078705,0.027863 -4.231415,0.383118 -6.40625,1.0625c-4.421356,1.78537 -8.553192,5.015442 -11.5,8.71875c-7.821838,9.829712 -9.997467,35.677521 -8.09375,56.96875c5.022858,56.176331 9.093872,55.064575 -9.1875,85.34375c-20.168457,33.404724 -50.116028,31.388062 -96.46875,28.5625c-14.381012,-0.876648 -26.354858,-3.542419 -45.71875,-3.84375c-20.610153,-1.19751 -35.301575,2.74823 -51.5625,6.90625c4.486343,-3.333862 8.662155,-6.873413 12.5625,-10.59375c-1.07489,0.03949 -2.134201,0.0625 -3.21875,0.0625c-5.564377,0 -11.008636,-0.528931 -16.28125,-1.53125c-10.308594,9.216675 -22.96962,17.137817 -38.34375,22.65625c1.815521,3.330078 3.225922,6.896057 4.1875,10.65625c6.912323,-2.30957 13.464081,-5.000427 19.625,-8.0625c0.012497,-0.005981 0.018799,-0.025085 0.031204,-0.031189c23.319107,-4.394653 48.67012,-7.09729 73.65625,-2.46875c23.081741,3.52417 41.124466,21.370605 54.812485,39.28125c4.0495,5.862671 7.619507,14.117188 9.125,20.84375c0.805359,3.598267 1.86142,9.898499 1.65625,12.46875c-0.480377,6.018188 -5.194489,7.285522 -9.125,9.65625c-4.886353,2.947266 -10.52301,6.26593 -13.5625,10.40625c-4.276245,5.825012 -3.213593,11.756409 1.75,15.21875c5.784515,3.711609 17.86145,3.825134 21.09375,-0.34375c2.487366,-3.208069 -0.535461,-6.766785 -10.25,-4.59375c-10.142273,2.268738 -8.070129,-5.736511 -4.125,-10.6875c2.894348,-3.632263 7.583313,-6.143738 11,-7.59375c9.068726,-3.848694 9.094177,-6.968018 7.8125,-12.0625c-0.81897,-3.255371 -0.140839,-3.33252 2.03125,-0.5625c18.223053,23.279053 33.852783,37.185669 47.875,40.75c14.022247,3.564331 19.424011,3.619934 26.96875,2.8125c7.544739,-0.807434 13.825226,-5.307495 14.625,-14.34375c0.927734,-10.481873 -19.140533,-18.616089 -29.09375,-13.90625c-2.038757,0.964722 -2.96521,4.565613 -0.625,7.75c3.885376,5.28656 10.723877,4.19574 9.9375,-0.625c-0.77182,-4.73114 4.105225,-2.940125 8.625,1.25c5.19751,4.818359 3.600616,9.12854 -1.84375,12.8125c-3.662994,2.478577 -6.962311,2.927551 -17.96875,2.3125c-14.45163,-2.405212 -22.855103,-7.502441 -30.3125,-13.78125c-8.340515,-7.0224 -15.218506,-15.706543 -22.21875,-27.3125c-5.413605,-8.975464 -10.258698,-18.849426 -19.40625,-34.625c-0.724487,-1.249451 -4.374207,-6.481567 -6.8125,-8.9375c-3.437592,-3.462524 -7.922302,-7.571777 -12.40625,-11.5c0.803436,0.475647 1.606659,0.93811 2.40625,1.4375c62.826965,28.927063 33.682739,27.813904 162.40625,77.53125c126.393616,48.817444 162.242554,20.988159 278.28125,1.8125c43.34552,-8.51062 96.005249,-30.21106 109.0625,-37.75c61.704773,-35.626831 69.701477,-4.624634 94.53125,0.8125c4.092529,0.762817 8.59314,1.102783 12.46875,0.6875c8.208984,-0.879639 16.140747,-1.471436 24.84375,-17.5c6.421204,-11.824585 1.213623,-22.263672 -10.3125,-26.40625c-11.132568,-4.000854 -13.612793,1.606873 -6.125,13.8125c10.984131,21.44165 -3.164917,26.372437 -21.625,22.25c-14.920776,-3.332092 -12.5979,-6.431702 -27.75,-13.03125c-31.152466,-13.568542 -50.767761,7.585022 -40.96875,-5.46875c20.326599,-27.078003 53.074341,-64.125244 62.09375,-100.375c5.279114,-21.217468 1.314636,-55.468811 -8,-69.062561c-6.930176,-10.112457 -16.573669,-21.051239 -34.125,-20.968719c-1.815674,0.008972 -3.728516,0.149353 -5.71875,0.40625c-26.791626,3.458374 -41.814758,35.718964 -20.0625,42.687531c5.032227,1.611938 12.29425,3.671692 18.625,-0.968811c10.509888,-7.703857 4.467163,-18.690186 -6.5,-16.1875c-10.763306,2.456299 -11.638733,-3.218506 -4.03125,-11.687469c8.748352,-9.739044 22.366882,-10.974213 33.78125,-2.96875c30.642456,27.252289 24.462646,79.035675 0.90625,115.906281c-11.220337,17.562134 -29.09668,36.883545 -38.4375,50.71875c-7.097534,10.512512 -43.126526,37.753784 -48.8125,38.21875c-1.299988,0.106323 7.36554,-14.7901 10.5625,-24.40625c10.011047,-30.112 6.477173,-63.486511 -14.84375,-73.03125c-5.443665,-2.436951 -11.706299,-3.798157 -28.71875,2.25c20.538391,-3.940613 37.33728,4.317444 41.375,24.3125c5.867188,29.054382 -7.761841,55.344727 -23.28125,69.6875c-24.293213,22.451355 -150.117737,48.820068 -214.4375,47.71875c-8.195923,-0.140381 -13.63678,-1.154663 -4.15625,-6.96875c35.273193,-17.741211 51.889343,-33.738098 61.625,-59.1875c3.856079,-10.079834 4.510559,-19.809753 5.75,-34.46875c0.245911,-4.107056 3.985718,-17.253906 8.8125,-24.78125c23.940674,-33.048645 78.532776,-34.682617 84.71875,-8.96875c10.057434,27.545654 -11.176941,56.922363 -32.78125,43.65625c-12.414612,-7.62323 -11.355408,-29.377014 1.375,-28.6875c7.876709,0.426575 9.706299,5.795471 3.875,11.125c-3.412415,3.118774 -3.712708,4.568359 -1.0625,4.6875c5.91156,0.265808 11.417969,-6.914368 10.125,-13.25c-1.892334,-9.272644 -14.07489,-11.1828 -23.15625,-3.625c-18.363281,15.282532 -3.126404,42.855042 22.0625,40c10.299072,-1.167358 18.189819,-7.716675 24.78125,-20.3125c10.103027,-28.742615 -0.27356,-56.903748 -33.09375,-59.53125c-9.109802,-0.729309 -22.36322,1.409119 -29.875,5.03125c9.287903,-13.816284 21.866089,-26.785767 30.4375,-32.40625c10.939758,-7.173462 14.909607,-8.508911 24.8125,-8.46875c12.430664,0.050476 21.250977,6.279175 22.96875,15.75c2.174927,11.991699 -13.970886,21.143555 -20.75,12.3125c-4.153198,-5.410339 2.711853,-8.891052 4.09375,-5.34375c0.861511,2.211609 4.618958,1.248657 5.28125,-1.9375c2.040466,-9.815796 -7.995667,-11.437439 -12.34375,-2.21875c-4.779358,11.715515 5.323792,16.938599 14.28125,14.8125c18.327026,-5.516846 17.153381,-27.571472 -1.9375,-36.375c-6.253845,-2.883911 -14.38446,-3.213562 -22.875,-1.34375c-12.661682,3.234314 -27.132813,16.446289 -35.9375,26c-13.633606,14.793457 -27.129944,26.172729 -39.96875,39.84375c-4.420227,4.862854 -7.304871,11.527405 -7.40625,13.78125c-0.114197,2.53949 -4.602722,-15.63269 -12.1875,-26.53125c-13.188599,-18.950806 -23.951782,-25.638672 -37.28125,-28.96875c-9.680359,-2.52594 -23.123169,-0.494812 -18.9375,9.125c3.234802,7.434265 7.669495,2.575745 23.78125,4.84375c10.623413,1.495361 18.570435,5.586548 26.15625,14.8125c13.364441,16.253967 15.434326,35.285889 13.46875,56.4375c1.741699,38.711426 -32.782471,64.306519 -70.46875,80.125c-57.263123,22.763916 -166.763702,-28.168396 -224.781189,-61.687561c-17.848602,-10.31189 -30.463745,-17.692993 -42.6875,-23.96875c-9.91803,-5.09198 -19.579315,-9.457336 -31.5625,-14.0625c-0.935486,-0.235657 -3.69342,-1.86969 0.25,-1.3125c113.786316,8.238098 112.130615,-9.266113 151.21875,-79.625c20.095367,-30.62854 60.372711,-23.602478 60.5625,4.5c0.076813,11.360901 -9.905762,18.559326 -10.03125,9.5c-0.147308,-10.634827 -14.979858,-15.118958 -22.125,-1.96875c-5.204163,9.578186 9.972809,18.233887 20.28125,16.40625c14.784454,-2.621155 21.54129,-19.342957 14.1875,-35.21875c-6.843018,-14.773193 -17.379089,-18.533081 -33.84375,-17.53125c-18.64267,1.134338 -30.84729,13.889832 -42.90625,36.0625c0.299774,-36.87561 -11.212708,-66.467163 -2.71875,-94.28125c3.493774,-11.440552 6.095367,-15.427795 10.53125,-18.1875c6.592957,-4.101807 14.451996,-4.043884 17.71875,2.9375c2.840698,6.070831 0.716095,9.482269 -4.375,6.96875c-5.1875,-2.561188 -10.343018,6.47406 -5.96875,12.3125c2.634888,3.516632 9.184204,4.022919 11.875,3.4375c7.922913,-1.723785 9.833344,-14.600739 5.15625,-23.75c-3.589661,-6.208038 -9.170105,-9.11499 -15.40625,-9.03125z" fill="#ff0000"/>
    <path id="path3839" d="m128.65625,638.918335c-2.381943,3.916077 -4.869438,7.753967 -7.53125,11.46875c13.025604,1.974182 23,13.20282 23,26.78125c0,14.971558 -12.122177,27.09375 -27.09375,27.09375c-12.821518,0 -23.555763,-8.88562 -26.375,-20.84375c-3.491951,2.959167 -7.101936,5.775513 -10.8125,8.46875c5.858177,14.79364 20.302757,25.25 37.1875,25.25c22.083008,0 39.96875,-17.885681 39.96875,-39.96875c0,-18.032288 -11.945145,-33.26825 -28.34375,-38.25z" fill="#ff0000"/>
    <path id="path3841" d="m117.03125,656.574585c-0.198547,0 -0.396538,0.025696 -0.59375,0.031189c-6.062508,7.741882 -12.75309,14.962891 -19.96875,21.625c0.000542,0.01062 -0.000557,0.020691 0,0.031189c0.567833,10.855896 9.566437,19.5 20.5625,19.5c11.361816,0 20.59375,-9.231934 20.59375,-20.59375c0,-11.361755 -9.231934,-20.59375 -20.59375,-20.59375l0,0.000122zm0,15.46875c2.840431,0 5.125,2.284546 5.125,5.125c0,2.840454 -2.284569,5.125 -5.125,5.125c-2.840439,0 -5.125,-2.284546 -5.125,-5.125c0,-2.840454 2.284561,-5.125 5.125,-5.125z" fill="#ff0000"/>
    <path id="path3649" d="m212.5,466.605804c-25.791763,0 -48.753143,12.136383 -63.5,31c2.619156,9.864075 4.414139,20.053253 5.34375,30.500031c8.014862,-24.453827 31.024033,-42.125031 58.15625,-42.125031c3.788452,0 7.495651,0.372131 11.09375,1.03125c-4.235825,-5.91803 -7.184082,-12.8461 -8.375,-20.34375c-0.898575,-0.029694 -1.812943,-0.0625 -2.71875,-0.0625zm67.8125,37.15625c-5.46344,2.158936 -11.393921,3.34375 -17.625,3.34375c-1.392517,0 -2.793793,-0.071411 -4.15625,-0.1875c9.421387,10.762726 15.15625,24.823517 15.15625,40.250031c0,33.791077 -27.396454,61.1875 -61.1875,61.1875c-27.605423,0 -50.943375,-18.28833 -58.5625,-43.40625c-1.165894,10.409241 -3.217163,20.540649 -6.0625,30.34375c14.689117,19.696594 38.172913,32.4375 64.625,32.4375c44.483368,0 80.53125,-36.079163 80.53125,-80.5625c0,-15.989258 -4.68634,-30.873901 -12.71875,-43.406281z" fill="#ff0000"/>
    <g transform="matrix(0.81616957,0,0,0.81616957,-766.29571,-393.52342) " id="g3089" fill="#008000">
     <path id="path3664" d="m857.80719,756.897461c-27.056946,0 -48.970154,21.913208 -48.970154,48.970093c0,27.056946 21.913208,48.970154 48.970154,48.970154c27.056885,0 48.970093,-21.913208 48.970093,-48.970154c0,-27.056885 -21.913208,-48.970093 -48.970093,-48.970093zm0,15.766357c18.343689,0 33.203796,14.860107 33.203796,33.203735c0,18.343689 -14.860107,33.203796 -33.203796,33.203796c-18.343689,0 -33.203796,-14.860107 -33.203796,-33.203796c0,-18.343628 14.860107,-33.203735 33.203796,-33.203735z" fill="#ff0000"/>
     <path id="path3666" d="m857.80719,780.641968c-13.920898,0 -25.225647,11.304749 -25.225647,25.225586c0,13.920898 11.304749,25.225647 25.225647,25.225647c13.920898,0 25.225586,-11.304749 25.225586,-25.225647c0,-13.920837 -11.304688,-25.225586 -25.225586,-25.225586zm0,18.953674c3.480225,0 6.271912,2.791748 6.271912,6.271912c0,3.480225 -2.791687,6.271973 -6.271912,6.271973c-3.480225,0 -6.272034,-2.791748 -6.272034,-6.271973c0,-3.480164 2.791809,-6.271912 6.272034,-6.271912z" fill="#ff0000"/>
    </g>
    <path d="m-221.857056,831.916565c20.037781,-17.747864 21.892776,-48.357605 4.144913,-68.395386c-17.747925,-20.037903 -48.357773,-21.892822 -68.395554,-4.144958c-17.334656,15.353821 -21.062775,40.337158 -10.261932,59.768982c6.209167,-2.229187 12.960083,-2.314758 19.163544,-0.279053c-0.465637,-0.466553 -0.909515,-0.952148 -1.352295,-1.452148c-12.032562,-13.584961 -10.776489,-34.311218 2.808472,-46.34375c13.5849,-12.03241 34.311234,-10.776428 46.343704,2.808594c12.032501,13.584839 10.776382,34.311279 -2.808517,46.343689c-9.292374,8.230347 -21.932571,10.268372 -32.847443,6.370667c0.23172,0.24408 0.469879,0.45575 0.694672,0.709656c4.290955,4.844604 6.667236,10.720764 7.243561,16.704712c12.440674,0.808105 25.191086,-3.166565 35.266876,-12.091003z" id="path3072" fill="#ff0000"/>
    <path d="m-237.43457,814.334351c10.309418,-9.131348 11.266205,-24.918701 2.134796,-35.22821c-9.131241,-10.309509 -24.918701,-11.266235 -35.228119,-2.134888c-10.309601,9.131287 -11.266205,24.918701 -2.134979,35.22821c9.131409,10.309509 24.918716,11.266174 35.228302,2.134888zm-12.432709,-14.036743c-2.577301,2.282837 -6.475983,2.046509 -8.758789,-0.530762c-2.282867,-2.577393 -2.0466,-6.476074 0.530701,-8.758911c2.577423,-2.282837 6.476105,-2.04657 8.758972,0.530823c2.282791,2.577332 2.04657,6.476074 -0.530884,8.75885z" id="path3074" fill="#ff0000"/>
    <g id="g3076" transform="matrix(-1.4420747,1.2772773,-1.2772773,-1.4420747,1842.7336,923.86956) " fill="#008000">
     <path id="path3078" d="m800.864258,749.058228c-7.560486,0 -13.693054,6.132568 -13.693054,13.693054c0,7.560486 6.132568,13.693054 13.693054,13.693054c7.560486,0 13.693054,-6.132568 13.693054,-13.693054c0,-7.560486 -6.132568,-13.693054 -13.693054,-13.693054zm0,3.190369c5.796387,0 10.502686,4.706299 10.502686,10.502686c0,5.796387 -4.706299,10.502747 -10.502686,10.502747c-5.796387,0 -10.502686,-4.70636 -10.502686,-10.502747c0,-5.796387 4.706299,-10.502686 10.502686,-10.502686z" fill="#ff0000"/>
     <path d="m804.593262,762.752808c0,2.061462 -1.671204,3.732666 -3.732666,3.732666c-2.061462,0 -3.732666,-1.671204 -3.732666,-3.732666c0,-2.061462 1.671204,-3.732666 3.732666,-3.732666c2.061462,0 3.732666,1.671204 3.732666,3.732666z" id="path3080" fill="#ff0000"/>
    </g>
    <g transform="matrix(1.6041108,0,0,1.6041108,-918.83881,-550.88594) " id="g2935" fill="#502d16">
     <path d="m297.225372,698.369812c-8.649475,0 -15.652924,7.003418 -15.652924,15.652893c0,8.649475 7.003448,15.690186 15.652924,15.690186c8.649475,0 15.652924,-7.04071 15.652924,-15.690186c0,-8.649475 -7.003448,-15.652893 -15.652924,-15.652893zm0,3.018738c6.986115,0 12.634155,5.648071 12.634155,12.634155c0,6.986145 -5.648041,12.671448 -12.634155,12.671448c-6.986115,0 -12.634155,-5.685303 -12.634155,-12.671448c0,-6.986084 5.648041,-12.634155 12.634155,-12.634155z" id="path3789" fill="#ff0000"/>
     <path id="path3793" d="m301.744385,714.038818c0,2.494995 -2.022644,4.517639 -4.51767,4.517639c-2.495056,0 -4.51767,-2.022644 -4.51767,-4.517639c0,-2.495056 2.022614,-4.5177 4.51767,-4.5177c2.495026,0 4.51767,2.022644 4.51767,4.5177z" fill="#ff0000"/>
    </g>
    <g transform="matrix(1.6041108,0,0,1.6041108,-1405.9581,-405.42365) " id="g2942" fill="#502d16">
     <path id="path3785" d="m383.490021,576.612671c-5.935455,0 -10.749908,4.814453 -10.749908,10.749878c0,5.935486 4.814453,10.749939 10.749908,10.749939c5.935455,0 10.749878,-4.814453 10.749878,-10.749939c0,-5.935425 -4.814423,-10.749878 -10.749878,-10.749878zm0,2.504639c4.550507,0 8.24527,3.694763 8.24527,8.245239c0,4.550537 -3.694763,8.2453 -8.24527,8.2453c-4.550507,0 -8.24527,-3.694763 -8.24527,-8.2453c0,-4.550476 3.694763,-8.245239 8.24527,-8.245239z" fill="#ff0000"/>
     <g id="g2939" fill="#502d16">
      <path id="path3787" d="m385.131989,587.363525c0,0.908203 -0.736237,1.64447 -1.64444,1.64447c-0.908203,0 -1.64444,-0.736267 -1.64444,-1.64447c0,-0.908203 0.736237,-1.644409 1.64444,-1.644409c0.908203,0 1.64444,0.736206 1.64444,1.644409z" fill="#ff0000"/>
     </g>
    </g>
    <g transform="matrix(1.6041108,0,0,1.6041108,-1168.3057,-490.91489) " id="g2957" fill="#552200">
     <path d="m539.349609,542.276672c-6.934143,0 -12.558716,5.624512 -12.558716,12.558655c0,6.934143 5.624573,12.558716 12.558716,12.558716c6.934143,0 12.558655,-5.624573 12.558655,-12.558716c0,-6.934143 -5.624512,-12.558655 -12.558655,-12.558655zm0,2.926025c5.316162,0 9.632629,4.316467 9.632629,9.632629c0,5.316223 -4.316467,9.632629 -9.632629,9.632629c-5.316162,0 -9.632629,-4.316406 -9.632629,-9.632629c0,-5.316162 4.316467,-9.632629 9.632629,-9.632629z" id="path3779" fill="#ff0000"/>
     <path id="path3781" d="m541.580383,554.83667c0,1.233887 -1.000244,2.234131 -2.234131,2.234131c-1.233826,0 -2.23407,-1.000244 -2.23407,-2.234131c0,-1.233887 1.000244,-2.234131 2.23407,-2.234131c1.233887,0 2.234131,1.000244 2.234131,2.234131z" fill="#ff0000"/>
    </g>
    <path d="m-45.819679,329.176361c-9.9589,0 -18.0369,8.077972 -18.0369,18.036835c0,9.958832 8.077999,18.036804 18.0369,18.036804c9.958797,0 18.036798,-8.077972 18.036798,-18.036804c0,-9.958862 -8.078001,-18.036835 -18.036798,-18.036835zm0,4.202393c7.635098,0 13.8344,6.19931 13.8344,13.834442c0,7.635101 -6.199303,13.834412 -13.8344,13.834412c-7.635201,0 -13.834499,-6.19931 -13.834499,-13.834412c0,-7.635132 6.199299,-13.834442 13.834499,-13.834442z" id="path3773" fill="#ff0000"/>
    <path id="path3726" d="m-237.288986,489.334869c-36.846115,0 -66.718246,29.872101 -66.718246,66.718292c0,10.01416 2.204315,19.520691 6.157684,28.038391c2.020691,-1.164368 4.315643,-1.853271 6.815308,-1.853271c7.604431,0 13.809967,6.205566 13.809967,13.809998c0,3.924683 -1.6698,7.415894 -4.304413,9.924011c11.776947,10.433411 27.259491,16.73938 44.2397,16.73938c15.965195,0 30.600494,-5.663208 42.087494,-15.005676c-2.537201,-6.72821 -4.671799,-13.659851 -6.396805,-20.744812c-8.666397,9.968018 -21.432587,16.261047 -35.690689,16.261047c-26.099319,0 -47.288651,-21.069702 -47.288651,-47.169067c0,-26.099365 21.189331,-47.288727 47.288651,-47.288727c12.357193,0 23.621902,4.7883 32.0439,12.554596c0.929001,-7.269348 2.294495,-14.431549 4.065292,-21.402496c-10.410294,-6.713806 -22.804901,-10.581665 -36.109192,-10.581665z" fill="#ff0000"/>
    <path id="path3728" d="m-237.288986,517.074402c-21.493515,0 -38.918961,17.485168 -38.918961,38.97876c0,21.493591 17.425446,38.859192 38.918961,38.859192c14.187195,0 26.612,-7.563171 33.4189,-18.891541c-1.830811,-10.28833 -2.809799,-20.87085 -2.809799,-31.685181c0,-3.947449 0.167801,-7.89325 0.418503,-11.777344c-7.113403,-9.367554 -18.36731,-15.483887 -31.027603,-15.483887zm0,17.21759c11.975098,0 21.641602,9.786133 21.641602,21.761169c0,11.974976 -9.666504,21.641602 -21.641602,21.641602c-11.975006,0 -21.641617,-9.666626 -21.641617,-21.641602c0,-11.975037 9.666611,-21.761169 21.641617,-21.761169z" fill="#ff0000"/>
    <g transform="matrix(1.6041108,0,0,1.6041108,-1168.3057,-490.91489) " id="g2996" fill="#552200">
     <path d="m671.143982,750.173523c-9.980164,0 -18.075439,8.095215 -18.075439,18.075378c0,9.980225 8.095276,18.075439 18.075439,18.075439c9.980164,0 18.075378,-8.095215 18.075378,-18.075439c0,-9.980164 -8.095215,-18.075378 -18.075378,-18.075378zm0,4.211365c7.651428,0 13.864014,6.212585 13.864014,13.864014c0,7.651489 -6.212585,13.864075 -13.864014,13.864075c-7.651489,0 -13.864014,-6.212585 -13.864014,-13.864075c0,-7.651428 6.212524,-13.864014 13.864014,-13.864014z" id="path3686" fill="#ff0000"/>
     <path id="path3690" d="m676.861511,768.250854c0,3.1604 -2.561951,5.722412 -5.722351,5.722412c-3.1604,0 -5.722412,-2.562012 -5.722412,-5.722412c0,-3.1604 2.562012,-5.722351 5.722412,-5.722351c3.1604,0 5.722351,2.561951 5.722351,5.722351z" fill="#ff0000"/>
    </g>
    <path id="path3678" d="m-155.983597,614.880005c-32.018494,0 -57.989899,25.971313 -57.989899,57.989868c0,32.018616 25.971405,57.930115 57.989899,57.930115c32.018608,0 57.989914,-25.911499 57.989914,-57.930115c0,-32.018555 -25.971306,-57.989868 -57.989914,-57.989868zm0,16.918701c22.67981,0 41.071205,18.391357 41.071205,41.071167c0,22.679871 -18.391396,41.011414 -41.071205,41.011414c-22.679794,0 -41.071198,-18.331543 -41.071198,-41.011414c0,-22.67981 18.391403,-41.071167 41.071198,-41.071167z" fill="#ff0000"/>
    <path id="path3682" d="m-155.983597,639.032532c-18.67749,0 -33.837387,15.159851 -33.837387,33.837341c0,18.677551 15.159897,33.777649 33.837387,33.777649c18.677505,0 33.83741,-15.100098 33.83741,-33.777649c0,-18.67749 -15.159904,-33.837341 -33.83741,-33.837341zm0,14.945801c10.406113,0 18.831802,8.485535 18.831802,18.891541c0,10.406067 -8.42569,18.831787 -18.831802,18.831787c-10.405991,0 -18.831696,-8.42572 -18.831696,-18.831787c0,-10.406006 8.425705,-18.891541 18.831696,-18.891541z" fill="#ff0000"/>
    <path id="path3670" d="m0.50642,654.989929c-32.240801,0 -58.352299,26.111511 -58.352299,58.352234c0,32.240723 26.111498,58.352234 58.352299,58.352234c32.2407,0 58.3522,-26.111511 58.3522,-58.352234c0,-32.240723 -26.1115,-58.352234 -58.3522,-58.352234zm0,18.786987c21.858,0 39.565201,17.707153 39.565201,39.565247c0,21.858093 -17.707201,39.565247 -39.565201,39.565247c-21.8582,0 -39.5653,-17.707153 -39.5653,-39.565247c0,-21.858093 17.7071,-39.565247 39.5653,-39.565247z" fill="#ff0000"/>
    <path id="path3672" d="m0.50642,683.28363c-16.587999,0 -30.058599,13.470581 -30.058599,30.058533c0,16.587952 13.4706,30.058533 30.058599,30.058533c16.5879,0 30.0585,-13.470581 30.0585,-30.058533c0,-16.587952 -13.4706,-30.058533 -30.0585,-30.058533zm0,22.584961c4.1469,0 7.4735,3.326599 7.4735,7.473572c0,4.146973 -3.3266,7.473572 -7.4735,7.473572c-4.147,0 -7.4736,-3.326599 -7.4736,-7.473572c0,-4.146973 3.3266,-7.473572 7.4736,-7.473572z" fill="#ff0000"/>
    <path id="path2849" d="m-169.972885,281.52774c-55.49881,0 -100.495865,44.99704 -100.495865,100.495911c0,55.49884 44.997055,100.495911 100.495865,100.495911c55.498894,0 100.495903,-44.99707 100.495903,-100.495911c0,-55.498871 -44.997009,-100.495911 -100.495903,-100.495911zm0,29.951477c38.955902,0 70.544403,31.588501 70.544403,70.544434c0,38.955902 -31.588501,70.484619 -70.544403,70.484619c-38.955902,0 -70.544403,-31.528717 -70.544403,-70.484619c0,-38.955933 31.588501,-70.544434 70.544403,-70.544434z" fill="#ff0000"/>
    <path id="path3625" d="m-169.972885,321.10437c-33.619507,0 -60.919312,27.299774 -60.919312,60.919281c0,33.619476 27.299805,60.859497 60.919312,60.859497c33.619492,0 60.859505,-27.240021 60.859505,-60.859497c0,-33.619507 -27.240013,-60.919281 -60.859505,-60.919281zm0,28.038391c18.14389,0 32.821091,14.73703 32.821091,32.88089c0,18.143829 -14.6772,32.821075 -32.821091,32.821075c-18.143799,0 -32.880905,-14.677246 -32.880905,-32.821075c0,-18.14386 14.737106,-32.88089 32.880905,-32.88089z" fill="#ff0000"/>
    <path id="path3629" d="m-26.97098,371.382202c-11.3295,0 -22.3985,1.08902 -33.120001,3.168518c0.165901,2.471954 0.298901,4.958954 0.298901,7.472931c0,16.579956 -3.721699,32.288269 -10.282703,46.391907c13.429905,-4.998138 27.934204,-7.771851 43.103804,-7.771851c68.306299,0 123.691896,55.38562 123.691896,123.691925c0,48.637695 -28.098,90.693481 -68.930296,110.898193c15.676798,7.570007 27.796499,21.256042 33.359091,37.962463c50.787399,-30.130981 84.83271,-85.523193 84.83271,-148.860657c0,-95.522125 -77.431313,-172.95343 -172.953402,-172.95343zm-109.582914,115.621063c-10.541092,3.352661 -21.767303,5.201172 -33.418991,5.201172c-7.286301,0 -14.391907,-0.742432 -21.282898,-2.092407c-5.626114,17.055481 -8.66861,35.282928 -8.66861,54.223602c0,25.490723 5.520309,49.717773 15.42421,71.500916c8.591095,-4.309875 18.25029,-6.755493 28.516586,-6.755493c10.00061,0 19.434799,2.293884 27.8591,6.39679c-14.192886,-20.1203 -22.5383,-44.643738 -22.5383,-71.142212c0,-20.697693 5.119614,-40.188751 14.108902,-57.332367zm38.082016,158.246735c4.015198,8.351379 6.277199,17.673889 6.277199,27.56012c0,10.342407 -2.505203,20.117615 -6.875099,28.755859c10.694588,4.91095 21.9841,8.758301 33.717896,11.418579c0.197601,-18.2276 7.933102,-34.6604 20.206802,-46.332092c-19.653099,-2.895935 -37.82,-10.407654 -53.326797,-21.402466z" fill="#ff0000"/>
    <path id="path3639" d="m-26.97098,439.953766c-57.633398,0 -104.381804,46.748413 -104.381804,104.381866c0,57.633423 46.748405,104.322021 104.381804,104.322021c57.6334,0 104.322001,-46.688599 104.322001,-104.322021c0,-57.633453 -46.688601,-104.381866 -104.322001,-104.381866zm0,49.321289c30.4177,0 55.060499,24.642914 55.060499,55.060577c0,30.417603 -24.642799,55.060486 -55.060499,55.060486c-30.417601,0 -55.120298,-24.642883 -55.120298,-55.060486c0,-30.417664 24.702698,-55.060577 55.120298,-55.060577z" fill="#ff0000"/>
    <path id="path2983" d="m-713.880615,153.044373c-3.708313,-0.043213 -7.292297,0.844971 -10.28125,3.03125c-11.028442,8.066895 -6.099609,30.809387 5.65625,28.9375c2.719543,-0.433014 6.261658,-3.391006 7.4375,-7.625c1.952148,-7.029312 -3.130005,-9.834549 -7.03125,-5.5625c-3.828674,4.192596 -7.063904,1.781967 -6.625,-4.90625c0.504761,-7.69133 5.991943,-11.955063 13.625,-10.53125c5.135681,0.957962 9.0578,2.521988 16.0625,12.21875c31.019043,42.940048 13.280701,66.978012 49,127.187469c-19.295593,-16.270386 -35.283447,-23.721771 -53.0625,-18c-15.701904,5.053345 -24.153076,12.374847 -25.15625,28.625c-1.078003,17.463013 11.274353,30.590149 26,27.65625c10.267456,-2.045593 21.268127,-15.625885 12.9375,-22.65625c-11.437256,-9.65213 -23.635803,-0.08548 -19.90625,9.875c3.177124,8.484924 -8.721863,5.423737 -12.78125,-5.1875c-10.04126,-26.247955 24.924744,-47.444214 54.78125,-26.21875c41.210083,34.033722 61.924988,59.036407 91.59375,78.9375c24.342712,16.328461 70.037201,38.370941 95.250031,51.125c25.655426,12.887482 54.179138,19.789032 88.3125,21.375c4.89325,0.227386 4.16214,0.785736 -4.6875,3.4375c-31.100555,9.319244 -56.588989,20.77713 -82.3125,37.09375c-49.290009,31.098907 -147.514923,92.776825 -213.250031,73.250031c-48.988281,-14.552124 -73.176697,-37.96405 -119.5,-91.375031c-10.029358,-11.563904 -7.126953,-18.7229 -4.5625,-32.9375c2.937805,-16.283691 6.810486,-25.11087 17.46875,-31c10.260498,-5.669281 20.559998,-10.375427 20.125,-14.9375c-0.749573,-7.861877 -14.957031,-4.400665 -26.28125,6.46875c-9.107178,8.741516 -15.913574,27.174286 -17.28125,46.78125c-0.665649,9.543365 -1.768555,14.490814 -2.875,13.03125c-0.981934,-1.295319 -5.521667,-3.60553 -10.03125,-5.15625c-37.771484,-21.467987 -71.708008,15.184265 -99.28125,20.78125c-23.488953,4.767944 -44.867065,1.72998 -61.03125,-21.90625c-12.705261,-19.430237 -30.394714,-58.69751 1.375,-69.875l5.90625,-0.34375l-6,2.375c-10.875916,4.296906 -9.040405,18.274841 2.40625,18.34375c8.172791,0.049225 12.648804,-4.790802 11.875,-12.90625c-0.842041,-8.831543 -6.684875,-14.13504 -14.65625,-13.375c-1.527283,0.14566 -2.945557,0.494537 -4.3125,1c-9.56842,3.538239 -18.566711,14.721863 -16.687439,33.4375c6.151123,61.259949 58.20105,88.232727 108.937439,58c19.8927,-11.853607 38.816528,-16.00174 24.3125,-5.46875c-17.851318,15.653992 -13.029541,35.928101 4.71875,48.84375c9.06134,4.774963 16.41394,5.42627 23,1.90625c16.10791,-8.60907 13.892395,-31.196289 -3.25,-32.75c-8.477539,-0.768311 -14.920166,5.351196 -12.25,11.625c1.824463,4.286621 8.039978,6.29425 11.4375,3.71875c1.523193,-1.154663 0.737122,-1.889648 -2.5625,-2.34375c-5.638489,-0.776001 -6.747314,-4.71283 -2.25,-8.1875c7.268738,-5.615784 16.776672,6.838318 12.53125,16.4375c-7.388,16.704773 -31.980103,7.982788 -37.28125,-12.46875c-6.848145,-17.781555 26.189087,-39.153168 53.906006,-29.343201c5.94165,2.490448 13.549622,8.757782 15.375244,11.093201c44.485413,56.905914 83.677612,87.455902 129.65625,98.437531c13.821777,3.30127 26.693237,4.932129 38.75,5.25c-115.262634,24.254211 -226.00824,-32.990295 -286.96875,-42.34375c-22.369385,-3.432251 -27.82428,-1.404907 -35.8125,0.53125c-40.665649,9.856384 -37.798462,-30.645782 -57.40625,-31.937531c-3.896851,-0.256714 -4.843262,-0.439026 -7.4375,-0.375c-3.335327,0.082336 -6.22644,1.610168 -9.46875,4.6875c-5.346558,5.074585 -6.151978,13.044617 -1.8125,17.781281c4.19104,4.574707 6.741455,1.725647 6.3125,-7.031281c0.409424,-23.663269 23.286194,-8.541687 30.71875,5.843781c10.593506,20.503174 29.847839,14.442383 21.15625,20.9375c-16.289063,12.172729 -40.872437,27.85022 -54.1875,47.71875c-7.793579,11.629395 -14.558594,32.868164 -13.625,42.8125c0.766357,8.163147 2.84021,17.560364 13.4375,20.09375c13.373779,3.197144 28.49646,-13.099243 20.09375,-21.53125c-1.943787,-1.950562 -4.801636,-4.621216 -8.922119,-3.09436c-6.840698,2.534912 -6.77832,10.262756 -1.030762,10.922607c5.640747,0.647583 4.599731,4.235107 -1.078369,7.796753c-6.529663,4.095825 -13.183228,2.145691 -16.5,-4.875c-2.231567,-4.723633 -2.173584,-8.453064 0.5,-20.125c1.805054,-7.880493 5.694824,-18.582275 8.59375,-23.78125c9.86731,-17.696472 33.695801,-41.088318 50.8125,-49.8125c7.23999,-3.690063 30.075623,-11.998718 31.84375,-11.59375c0.657166,0.150452 -3.639343,3.665405 -9.53125,7.8125c-13.422729,9.447815 -25.592834,28.860413 -29.28125,46.6875l-2.40625,11.625l3.71875,-9.96875c6.318481,-17.048828 14.255981,-29.32251 24.125,-37.25c17.923645,-14.397522 31.167969,-17.561157 67.71875,-9.84375c46.985962,9.920715 185.222534,73.175293 312.125,19.78125c51.901062,-17.799805 86.665833,-58.017914 124.750031,-70.093781c-52.142731,40.822662 -75.105194,115.576813 -126.874298,159.999908c-13.591553,11.662903 -30.100464,16.368958 -38.813232,16.843872c-8.712708,0.474976 -15.979675,-3.515015 -18.4375,-10.90625c-2.304077,-6.929016 0.952576,-17.259521 7.0625,-22.46875c4.791382,-4.085083 7.752075,-10.670349 5.875,-13.03125c-4.133545,-5.198914 -15.3573,2.552917 -19.21875,13.28125c-3.831055,10.644165 -2.318359,19.407349 4.5625,26.5625c3.400574,3.536133 5.282104,6.637268 4.15625,6.875c-2.825928,0.59668 -15.903137,-3.358643 -25,-13.1875c-9.096802,-9.828796 -14.420532,-31.695618 -4.8125,-38.15625c9.52002,-6.401428 9.609436,-13.643555 3.84375,-15.71875c-13.061584,-4.701233 -25.396484,20.085022 -9.71875,47.5625c15.677795,27.477539 47.27179,30.582825 82.125732,15.062805c34.84436,-15.515808 84.072571,-110.030518 133.372925,-157.156464c19.230804,-22.497192 36.892792,-23.618713 24.282623,-5.125122c-67.147095,117.928802 -142.512421,210.183136 -258.968781,253.250031c-31.166077,11.525574 -73.839783,2.28894 -92.40625,-13.9375c-15.114319,-12.27124 -10.156677,-34.525024 2.40625,-50.25c-41.689514,43.903687 4.01123,76.831909 53.8125,74.5625c12.50061,-1.933228 7.276367,-0.044189 -10.375,5.40625c-51.114441,9.665039 -139.956909,-3.025635 -143.53125,-68.34375c-0.389343,-13.320129 7.391907,-25.360229 17.53125,-27.09375c10.185547,-1.741394 16.175903,13.636414 6.4375,16.53125c-5.624023,1.671814 -7.762695,-0.472656 -3.125,-3.15625c2.839417,-1.643005 2.965759,-2.511353 0.5625,-4.15625c-4.358032,-2.982788 -9.09668,2.330505 -5.90625,6.625c3.542542,4.768433 13.218323,2.755554 15.03125,-3.125c1.735046,-5.627502 -1.470825,-12.305664 -5.92218,-14.234314c-25.834778,-11.193787 -40.439758,25.063293 -23.70282,56.609314c16.737,31.546021 73.535706,51.593201 119,46.96875c216.052124,-21.893433 308.396912,-228.925537 357.375031,-293.218781c41.87854,-25.837921 90.304443,-36.569946 132.1875,-29.3125c19.46582,3.373016 20.128937,3.369202 19.03125,-0.65625c-1.080292,-3.961273 -2.467865,-4.46347 -26.8125,-8.9375c-27.264069,-5.010559 -44.958069,-6.256287 -75.9375,-5.40625c-11.635468,0.319275 -30.319855,-1.102661 -47.625,-3.65625c-26.889191,-3.967773 -29.391144,-4.642883 -44.90625,-12.1875c-27.036835,-13.147339 -41.876099,-30.419647 -38.90625,-45.3125c1.917175,-9.614014 7.967041,-13.146881 18.03125,-10.4375c9.251404,2.490631 12.749908,1.103455 13.28125,-5.3125c0.437195,-5.278778 -7.731354,-10.638885 -15.9375,-10.46875c-13.104736,0.271759 -24.601105,15.134521 -22.25,28.78125c1.691925,9.820648 4.386536,14.654175 13.125,23.5625c8.84375,9.015656 7.01828,8.801849 -4.15625,-0.5c-32.925446,-27.407532 -42.716705,-60.853516 -22.937531,-78.15625c9.091736,-7.953339 17.906555,-8.887299 37.093781,-4c10.567017,2.691589 16.017822,3.203552 19.6875,1.84375c6.561462,-2.431366 7.699493,-7.780518 2.90625,-13.71875c-6.100616,-7.557861 -14.249023,-10.053314 -29.21875,-8.9375c-24.781708,1.847229 -42.646149,17.27005 -44.531281,38.40625c-1.042542,11.688965 -3.309143,7.92691 -4.15625,-6.875c-1.046265,-18.281372 3.924255,-38.513214 11.875,-48.375c9.815735,-12.174988 23.931671,-18.730957 43.125031,-20.09375c16.726593,-1.187653 27.926941,-5.999084 29.4375,-12.593735c1.204834,-5.26004 -5.67514,-14.315582 -11.9375,-15.75c-2.066254,-0.473297 -4.374054,-0.746368 -6.78125,-0.78125c-0.651978,-0.009979 -1.329071,-0.021698 -2,0c-10.064087,0.324738 -22.0914,4.11676 -31.96875,10.3125c-29.067963,18.233322 -43.11203,48.19548 -38.812531,82.968735c2.950134,23.859497 11.964172,44.60376 29.34375,65.375c-25.582153,-8.745697 -74.604553,-40.985565 -104.71875,-72.53125c-32.105957,-33.678375 -36.190796,-59.686127 -51.9375,-113.843719c-5.968079,-20.526123 -19.292542,-44.109711 -28.03125,-48.9375c-4.142456,-2.288574 -9.107117,-3.881943 -13.875,-3.9375z" fill="#ff0000"/>
    <path id="path2929" d="m-154.532379,742.575623c-3.337387,0.022705 -5.955948,1.645813 -10.0625,6c-20.011703,21.218689 -9.249649,57.112366 21.15625,70.625c15.759003,7.003479 27.73494,7.936401 45.03125,3.5625c25.1717,-6.365356 45.026398,-19.119141 64.25,-41.25c11.4429,-13.173462 6.616199,-4.282715 -6.9688,12.8125c-25.930202,32.630493 -63.3522,53.937683 -101.87495,58c-15.831207,1.669495 -42.382797,-1.491211 -62.125,-7.40625c-7.094696,-2.125671 -14.009094,-4.529602 -18.84375,-5.65625c-2.111267,1.45697 -4.282745,2.761108 -6.53125,3.875c0.120956,0.089233 0.212555,0.154053 0.34375,0.25c5.287598,3.866455 37.14505,15.435608 50.03125,17.3125c23.444702,3.414734 45.087433,1.483887 71.34375,-6.375c40.887711,-12.23822 70.054398,-35.923096 94.687499,-76.9375c0.8577,-1.42804 -1.1377,-3.060242 -5.49999,-4.5l-6.8437,-2.25l-14.343801,15.46875c-12.383308,13.329407 -17.011299,16.792358 -33.531212,25.0625c-17.3526,8.687012 -20.390388,9.59375 -32.125,9.59375c-10.214859,0 -14.027138,-0.843689 -18.000038,-3.96875c-6.33271,-4.981323 -6.524605,-10.873169 -0.4375,-13.1875c5.921501,-2.251343 7.447502,-4.856323 4.375,-7.40625c-3.590698,-2.97998 -11.718315,1.630127 -12.499992,7.09375c-1.159698,8.106079 1.514877,13.78595 7.874992,16.6875l6.15625,2.8125l-8.59375,-1.1875c-10.946312,-1.506042 -21.662056,-8.407166 -24.781242,-15.9375c-3.484619,-8.412537 1.945984,-17.276733 13.125,-21.40625c9.5466,-3.526489 12.956131,-7.868286 8.84375,-11.28125c-5.900009,-4.896545 -22.329361,5.411926 -25.90625,16.25c-1.644318,4.982178 -1.692673,8.342834 -0.15625,12.75c3.35318,9.618896 0.921539,8.472046 -5.40625,-2.5625c-9.554016,-16.6604 -7.360367,-28.583801 7.65625,-41.4375c9.20929,-7.882751 9.706131,-14.332275 1.15625,-15.3125c-0.512573,-0.058777 -1.023239,-0.096985 -1.5,-0.093689l0,-0.000061l-0.000015,0z" fill="#ff0000"/>
    <path id="path2925" d="m-484.138519,665.120056c3.60611,9.451416 -1.306458,38.015076 -10.186401,59.227722c-0.733582,1.752502 -1.096313,0.58551 -0.845459,-2.720398c0.375244,-4.945435 -0.918976,-7.433716 -8.878082,-17.069031c-5.124481,-6.203857 -12.702393,-15.584229 -16.838806,-20.846313l-7.521423,-9.566711l2.524841,-13.591431c1.388611,-7.475281 3.110535,-14.030945 3.826416,-14.568176c0.715942,-0.537231 5.072571,3.067566 9.681519,8.010559c7.524933,8.070435 10.469208,12.684753 15.597351,24.443787c0.864471,1.9823 1.256073,-0.464233 0.8703,-5.436584c-0.593018,-7.643066 -2.100677,-10.948975 -9.751862,-21.383728l-9.050385,-12.342957l9.275299,4.99884c11.589996,6.246277 18.192566,12.708557 21.296692,20.844421l-0.000031,0l0.000031,0z" fill="#ff0000"/>
    <path id="path2921" d="m-220.313217,677.544434c-36.823441,10.59436 -54.440445,35.146973 -58.250412,71.218689c3.216156,-1.690918 6.548248,-3.019592 9.96875,-4c4.372314,-20.449707 16.128326,-44.323792 61.78125,-33.46875c-12.201767,-10.38385 -12.329758,-29.204529 -13.499588,-33.749939z" fill="#ff0000"/>
    <path id="path2919" d="m-768.628723,791.036682c-1.463135,3.751831 -2.162964,11.513489 -1.555176,17.248108l1.105042,10.426514l2.25946,-4.556641c1.242676,-2.506165 4.700745,-5.888611 7.684509,-7.516602c7.840149,-4.277527 11.775452,-10.433533 11.04248,-17.273621c-0.814514,-7.60083 -2.591248,-8.05719 -8.022034,-2.060486c-2.393738,2.643188 -5.19873,5.23291 -6.233337,5.754883c-2.997314,1.512146 3.583679,-8.253113 6.803345,-10.095215c5.556885,-3.179688 1.037598,-5.001953 -4.675049,-1.885132c-3.659851,1.996765 -6.715698,5.61554 -8.409241,9.958191z" fill="#ff0000"/>
    <path id="path2917" d="m-589.086304,764.763611c-0.799927,17.504211 -1.587402,20.416443 -3.654846,13.515869c-1.106323,-3.692688 -4.880066,-7.248901 -13.335022,-12.566528c-6.485657,-4.079041 -13.024902,-8.761536 -14.531738,-10.405579c-2.965576,-3.235657 -4.870667,-21.896606 -2.466919,-24.164429c1.639404,-1.546631 18.770508,12.026001 21.017639,16.651917c1.296326,2.668396 1.473816,2.610046 1.776062,-0.584229c0.404297,-4.271667 -5.483765,-11.485046 -14.372803,-17.608337c-5.992676,-4.128113 -6.088989,-4.310974 -2.151611,-4.086914c2.266968,0.129028 7.87915,2.035156 12.471436,4.23584c11.894287,5.699829 16.141663,15.452698 15.247803,35.01239z" fill="#ff0000"/>
    <path id="path2913" d="m-713.94342,464.158051c6.007019,0.834137 18.688232,5.164368 16.219971,13.314758c-2.878906,9.506165 -13.944885,1.314148 -19.788208,-7.601135c-46.851746,-8.216949 -54.701233,47.191071 -9.413513,73.117828c-50.923523,-22.697388 -48.327454,-91.575287 12.98175,-78.831451z" fill="#ff0000"/>
    <path id="path2909" d="m-701.839539,736.273926c-6.265564,-3.820618 -11.100586,-13.432007 -13.16333,-26.166626c-0.668945,-4.130005 -1.644104,-9.567932 -2.166992,-12.084351c-0.897644,-4.31958 -0.679138,-4.252441 3.909607,1.200989c3.032593,3.604004 7.984619,6.562927 13.167969,7.868103c4.569153,1.150513 10.586609,3.884583 13.372131,6.075684c5.166077,4.063599 10.728149,17.975464 8.198242,20.505371c-0.768677,0.768677 -6.551758,-1.305481 -12.851379,-4.609192c-10.135254,-5.315247 -11.142639,-5.538086 -8.750732,-1.93573c1.486633,2.239075 6.406372,6.029419 10.932678,8.422974l8.229675,4.351929l-7.474915,-0.007996c-4.111206,-0.002991 -10.142517,-1.633789 -13.402954,-3.622009l0,0.000488l0,0.000366z" fill="#ff0000"/>
    <path id="path2907" d="m-706.41803,799.505066c-2.329163,-15.60675 -10.829346,-24.147156 -24.324402,-24.439514l-6.694214,-0.145142l8.111633,4.195313c4.461426,2.307373 8.928162,5.787903 9.926025,7.734436c1.465088,2.857788 -0.286743,2.384399 -9.098999,-2.45874c-12.238037,-6.725891 -14.015137,-5.574524 -10.226501,6.62561c2.341492,7.540039 7.346924,11.489624 18.714844,14.767273c4.4104,1.271606 9.665344,4.0177 11.677673,6.102478c4.24176,4.394409 4.331238,3.815491 1.91394,-12.381836l0,0.000122z" fill="#ff0000"/>
    <path id="path2905" d="m-373.094879,671.731873c-9.595642,-0.012756 -18.49231,2.067688 -25.03125,6.34375c-19.961395,13.053467 -18.521423,35.514343 2.375,37.03125c10.142517,0.167847 20.600006,-7.331238 13.875,-18.0625c-5.939423,-8.314941 -16.781128,-4.454346 -13.3125,4.96875c1.125916,3.058777 5.386871,3.195068 6.0625,0.78125c1.083679,-3.871521 9.096283,-1.886108 5.1875,4.46875c-6.380157,10.372864 -25.316467,4.726318 -24.40625,-7.8125c0.718903,-9.902893 9.641022,-18.121033 23.34375,-20.90625c10.91626,-2.21875 15.451202,-1.745544 28.40625,3.0625c12.508087,4.642212 18.110809,9.08252 29.6875,23.5625c7.845917,9.813599 18.487366,25.00592 23.187897,33.859192c4.379028,8.247803 4.806244,10.197388 10.916962,19.970459c1.91864,-1.570862 3.840607,-3.143066 5.770142,-4.704651c-11.203186,-29.656372 -20.996399,-45.752747 -48.030975,-68.717834c-9.859802,-8.37561 -25.694275,-13.828186 -38.031525,-13.844666z" fill="#ff0000"/>
    <path id="path2903" d="m-283.968628,588.467407c4.126129,4.901245 3.207458,10.862 0.228699,14.122925c-2.3013,2.519165 -6.054474,5.234741 -12.510284,5.350159c-14.956451,0.267273 -32.274414,-17.395691 -33.97641,-38.911133c-2.908905,-36.772705 22.183075,-80.750458 63.352509,-103.157684c15.882828,-8.644501 14.105026,-4.276917 -2.984039,7.331238c-20.152069,13.688782 -35.578491,30.096313 -43.085327,45.825531c-7.470154,15.652283 -9.66095,25.705811 -9.718018,44.595825c-0.037994,12.56842 0.7901,17.068604 4.400116,23.91333c5.615082,10.646362 14.820099,17.040283 24.532043,17.040283c15.150421,-0.324707 10.202393,-19.494995 1.731628,-14.516785c-2.467529,1.450195 0.46875,0.787231 2.711731,2.869629c2.241943,2.08136 -1.031097,4.39502 -3.59552,3.994873c-4.507202,-0.703308 -4.856445,-5.240784 -1.848969,-8.705444c2.261292,-2.60498 8.459412,-2.504822 10.761841,0.247253z" fill="#ff0000"/>
    <path id="path2901" d="m-570.870117,466.272369c-6.121826,-2.664856 -47.420654,-10.574249 -48.625732,-9.312592c-0.246155,0.25769 1.962219,1.565186 4.907593,2.905487c6.959961,3.167267 12.628418,12.468811 18.031677,29.588806c2.263367,7.171082 5.890076,14.733826 8.059448,16.80603c4.909241,4.68927 18.773865,9.282745 26.719421,8.852325l5.984802,-0.324219l-6.050049,-12.942596c-3.327454,-7.118408 -8.689636,-15.500122 -11.915894,-18.626099c-4.805603,-4.656128 -5.156189,-5.513062 -1.939575,-4.740234c6.794434,1.632263 15.431335,11.383911 20.972473,23.679138c2.93927,6.522034 5.628357,11.184967 5.975647,10.36203c1.245117,-2.949921 -1.944946,-23.901337 -4.553589,-29.907318c-3.290771,-7.576477 -8.443176,-12.369446 -17.566223,-16.340759z" fill="#ff0000"/>
    <path id="path2899" d="m-405.165588,539.029968c-6.261658,-4.170593 -11.438232,-12.412964 -14.101746,-22.453247c-1.051483,-3.963806 0.145813,-3.252686 6.992462,4.153137c7.976013,8.62738 16.242035,14.330078 18.091125,12.481018c0.491394,-0.491394 -1.415985,-2.710022 -4.238586,-4.930237c-5.331116,-4.193481 -15.967072,-17.329132 -16.060028,-19.834503c-0.093994,-2.533875 19.08429,-1.529541 24.525757,1.284363c2.892059,1.495544 7.581543,6.876068 10.421112,11.956696c7.316406,13.090759 9.495819,15.510437 16.842499,18.698975c6.254883,2.714722 5.686218,2.826599 -14.733093,2.898621c-18.943939,0.066711 -21.941559,-0.393005 -27.739502,-4.254822z" fill="#ff0000"/>
    <path id="path2897" d="m-362.509979,382.313812c-8.067444,-12.526367 -20.094116,-18.739258 -57.333435,-29.617889l-15.365112,-4.488617l7.083679,4.864868c9.011963,6.189148 12.644104,12.996216 16.045776,30.071716c4.37085,21.940674 8.355499,30.036682 18.145508,36.868164c4.656647,3.24942 12.943665,7.005585 18.415588,8.347015l9.948914,2.438904l-0.428009,-3.683136c-0.69281,-5.955475 -10.225067,-31.066528 -13.948151,-36.744049c-1.885284,-2.875 -5.297546,-6.925446 -7.582794,-9.001038l-4.154999,-3.773773l6.051605,3.244324c11.871918,6.364655 20.415497,19.733337 27.200256,42.562012l2.26178,7.610291l0.532776,-7.052155c1.113312,-14.737793 -2.105927,-34.244995 -6.872864,-41.646759l-0.000031,0l-0.000488,0.000122z" fill="#ff0000"/>
    <path id="path2895" d="m-209.005585,134.481873c-1.950104,0.040588 -3.900604,0.132797 -5.843704,0.28125c-26.760696,4.068466 -50.449448,14.279221 -71.624771,31.28125c-70.466034,58.373581 -59.502167,144.930664 -5.031494,207.062469c5.424561,4.207062 10.53656,7.65625 11.34375,7.65625c3.458618,0 1.028442,-8.228973 -3.53125,-12c-25.432098,-23.641174 -40.745636,-53.278442 -43.84375,-85.375c6.808075,-34.001053 26.423462,-69.005356 42.25,-70.093735c7.472595,-0.513855 10.630096,-0.707825 13.21875,3.75c1.674713,2.884003 1.450897,4.400635 -1.21875,7.65625c-4.340698,5.293579 -2.187561,10.247314 3.34375,7.6875c5.428528,-2.512177 6.150543,-12.063416 1.375,-18.0625c-3.818878,-4.797318 -4.459656,-5.028473 -12.28125,-4.124985c-4.534882,0.523819 -8.16272,0.659073 -8.0625,0.281235c0.10025,-0.377838 4.505737,-2.238937 9.78125,-4.124985c17.212799,-6.153717 32.326157,-1.444427 33.937561,10.562485c0.699097,5.208405 -0.099991,7.619202 -4.8125,14.8125c-8.163513,12.460846 -6.453186,18.610443 3.531296,12.8125c3.3078,-1.920898 5.328613,-5.177612 6.906204,-11.125c2.944397,-11.100098 0.719604,-20.114471 -6.25,-25.468735c-7.593292,-5.833389 -6.744492,-6.889252 2.375,-2.90625c18.2397,7.966202 24.531998,18.465164 21.218796,35.468735c-3.165192,16.243698 -3.019791,19.568893 0.843704,20.593735c11.626404,3.084045 16.444504,-18.21315 8.0625,-35.624985c-6.09259,-12.656067 -14.736694,-19.488007 -29.781204,-23.531235c-54.028885,-8.139893 -68.395493,23.535507 -84.968857,65.624969c-0.482758,-21.1371 5.540466,-41.459702 14.90625,-60.093994c26.126709,-45.489655 80.671112,-72.047012 119.125015,-66.062225c26.530197,4.128998 46.122299,22.423859 52.579102,43.63707c5.657791,18.587952 3.039795,31.588837 -20.497696,40.308929c-15.546509,5.759583 -28.161407,27.627136 -11.437805,34.90773c18.757401,3.724609 31.058304,-7.44838 40.246399,-22.936386c29.573807,-55.822464 -15.405807,-104.112442 -75.858704,-102.854843l-0.000092,0z" fill="#ff0000"/>
    <path id="path2889" d="m-350.507446,230.400589c-0.824829,-0.707214 -4.147675,-4.372437 -7.384094,-8.144989c-6.834991,-7.967468 -17.525696,-13.098999 -28.216064,-13.543808c-6.19339,-0.257675 -41.955536,9.01619 -42.178589,10.93779c-0.051086,0.43985 2.192505,0.568329 4.985687,0.285522c6.125122,-0.620178 14.29007,3.963684 26.453857,14.851318c12.852722,11.504272 18.302704,14.841797 25.729919,15.756866c7.694519,0.947968 23.961487,-3.565063 22.176666,-6.152618c-2.57724,-3.736786 -23.340302,-17.395111 -30.366669,-19.976044c-8.748138,-3.213348 -7.749878,-4.712982 2.082062,-3.127655c4.457611,0.71875 11.356873,4.145782 19.729248,9.800079c7.080963,4.782104 13.313782,8.851196 13.850677,9.042328c1.151276,0.409882 -4.68158,-7.858978 -6.862762,-9.72879l0.000061,-0.000031l0,0.000031z" fill="#ff0000"/>
    <path d="m-660.694946,513.521973c5.010132,-0.844055 11.62439,-4.003815 16.373291,3.478699c3.356506,5.288574 -9.984558,6.785522 -16.942322,1.393799c-39.516968,5.271484 -32.343933,44.630859 10.884155,40.874329c-47.301941,12.292358 -62.538269,-40.375366 -10.315125,-45.746826z" id="path2955" fill="#ff0000"/>
    <g transform="matrix(1.9266759,0,0,1.9266759,-1533.4879,-630.47453) " id="g2961" fill="#502d16">
     <path id="path2963" d="m539.349609,547.052246c-6.934143,0 -12.558716,5.624512 -12.558716,12.558655c0,6.934143 5.624573,12.558716 12.558716,12.558716c6.934143,0 12.558655,-5.624573 12.558655,-12.558716c0,-6.934143 -5.624512,-12.558655 -12.558655,-12.558655zm0,2.926025c5.316162,0 9.632629,4.316467 9.632629,9.632629c0,5.316223 -4.316467,9.632629 -9.632629,9.632629c-5.316162,0 -9.632629,-4.316406 -9.632629,-9.632629c0,-5.316162 4.316467,-9.632629 9.632629,-9.632629z" fill="#ff0000"/>
     <path d="m542.450562,559.612244c0,1.714478 -1.389832,3.104248 -3.104309,3.104248c-1.714417,0 -3.104248,-1.389771 -3.104248,-3.104248c0,-1.714417 1.389832,-3.104248 3.104248,-3.104248c1.714478,0 3.104309,1.389832 3.104309,3.104248z" id="path2965" fill="#ff0000"/>
    </g>
    <path d="m-874.20697,556.33783c-0.666382,0.43103 -3.972229,1.880493 -7.346252,3.221191c-7.125732,2.831421 -12.693848,9.832397 -14.695984,18.477722c-1.159912,5.008606 0.330566,37.705933 1.757874,38.563843c0.326721,0.19635 0.773682,-1.605652 0.993164,-4.004517c0.481384,-5.260437 5.239685,-10.374146 15.416565,-16.567993c10.753296,-6.544739 14.140808,-9.860535 15.99292,-15.654297c1.918701,-6.002258 1.016602,-20.978516 -1.229919,-20.417114c-3.244263,0.810608 -16.867493,13.112 -19.924683,17.99115c-3.806335,6.074829 -4.791992,4.726685 -2.055664,-2.811646c1.240601,-3.417786 4.921753,-7.895386 10.526794,-12.804199c4.740479,-4.151672 8.806458,-7.855286 9.0354,-8.230225c0.491089,-0.804077 -6.708069,1.096558 -8.470215,2.236206l0,-0.000122z" id="path2967" fill="#ff0000"/>
    <path d="m-756.717163,601.401367c3.242615,7.938293 -1.174744,31.928955 -9.159485,49.745544c-0.659607,1.471924 -0.985779,0.49176 -0.760193,-2.284851c0.337402,-4.153687 -0.826355,-6.243591 -7.983093,-14.336365c-4.607849,-5.210571 -11.421875,-13.089233 -15.141235,-17.50885l-6.763184,-8.035095l2.270264,-11.415466c1.248657,-6.278503 2.796997,-11.784668 3.440735,-12.235901c0.643738,-0.451172 4.561157,2.576477 8.705444,6.728088c6.766357,6.778381 9.413818,10.653992 14.025024,20.530457c0.777283,1.664917 1.129395,-0.389954 0.782532,-4.566223c-0.533264,-6.419434 -1.888916,-9.196106 -8.768799,-17.960266l-8.137939,-10.366882l8.34021,4.198547c10.42157,5.246216 16.358521,10.67395 19.149719,17.507263l0,0.000061l0,-0.000061z" id="path2986" fill="#ff0000"/>
    <path d="m-338.238098,766.352295c-7.686127,3.434143 -31.647247,0.675537 -49.684235,-5.720093c-1.490112,-0.528381 -0.537292,-0.883789 2.221191,-0.828491c4.126556,0.082581 6.134125,-1.107971 13.771393,-8.167603c4.917358,-4.545288 12.360504,-11.276367 16.541107,-14.957092l7.600555,-6.692749l11.410095,1.468262c6.275513,0.807495 11.802429,1.934509 12.281952,2.504456c0.479523,0.570007 -2.313812,4.356934 -6.207458,8.415466c-6.357117,6.626343 -10.054779,9.28656 -19.587769,14.092285c-1.607056,0.81012 0.443939,1.022156 4.557587,0.471252c6.32312,-0.846802 9.000183,-2.252686 17.315948,-9.093445l9.836487,-8.091797l-3.723816,7.938477c-4.653107,9.919434 -9.716766,15.704895 -16.333038,18.661072l-0.000031,-0.000061l0.000031,0.000061z" id="path3006" fill="#ff0000"/>
    <path id="path3008" d="m-343.576294,639.953552c5.728516,-4.333069 26.176788,-6.648987 42.400208,-4.802063c1.340302,0.152527 0.616638,0.631287 -1.687012,1.115967c-3.446075,0.725037 -4.885834,2.100891 -9.876373,9.438171c-3.213257,4.724182 -8.105591,11.751099 -10.872711,15.614807l-5.030579,7.02533l-9.767029,0.974304c-5.371857,0.535889 -10.182892,0.66217 -10.691132,0.280579c-0.50824,-0.381531 1.085327,-4.066711 3.541229,-8.189331c4.009735,-6.730957 6.571716,-9.653503 13.571625,-15.481934c1.179993,-0.982544 -0.565643,-0.764282 -3.879181,0.484924c-5.093201,1.920166 -7.048065,3.603699 -12.644684,10.889648l-6.620087,8.618347l1.568451,-7.315063c1.959839,-9.140625 5.056152,-14.923767 9.987274,-18.653687l0.000031,0l-0.000031,0z" fill="#ff0000"/>
    <path d="m-382.164948,642.414795c0.954224,-10.226257 1.496124,-11.909424 2.515045,-7.81189c0.545258,2.192749 2.656006,4.379639 7.458618,7.727722c3.684052,2.568237 7.38269,5.491272 8.219269,6.495667c1.646484,1.976746 2.243866,12.955383 0.77359,14.21637c-1.002808,0.860046 -10.656036,-7.562073 -11.843262,-10.332825c-0.684937,-1.598328 -0.790436,-1.569092 -1.056122,0.292725c-0.355255,2.489807 2.891846,6.876526 7.9263,10.708435c3.394043,2.583252 3.445313,2.692993 1.146271,2.452515c-1.3237,-0.138489 -4.55661,-1.410278 -7.184265,-2.826233c-6.805695,-3.667297 -9.021729,-9.495361 -7.955444,-20.922485z" id="path3010" fill="#ff0000"/>
    <path d="m-863.656372,402.822662c-5.04248,-10.429718 -13.395691,-17.184753 -39.821228,-32.202454l-10.903259,-6.196411l4.838989,4.829498c6.156555,6.14389 8.348389,11.663452 9.683411,24.383514c1.715393,16.344269 4.077881,22.842773 10.758606,29.593414c3.177612,3.211029 8.968689,7.495178 12.868896,9.520477l7.091248,3.682251l-0.065002,-2.68335c-0.105713,-4.339172 -5.372131,-23.93811 -7.706177,-28.678436c-1.181946,-2.400421 -3.398438,-5.931335 -4.925659,-7.846497l-2.776672,-3.482056l4.195251,3.48233c8.230164,6.831635 13.563354,17.949585 16.979431,35.396332l1.138794,5.816132l0.861572,-4.871368c1.800537,-10.180389 0.761658,-24.580444 -2.217896,-30.743256l0,0l-0.000305,-0.000122z" id="path3036" fill="#ff0000"/>
    <path d="m-612.474182,288.391876c5.595642,-2.781799 23.580017,-1.718872 37.291199,2.20401c1.132751,0.324066 0.436279,0.618103 -1.623657,0.685394c-3.081482,0.100739 -4.53125,1.039581 -9.945068,6.440735c-3.485779,3.477539 -8.767944,8.633606 -11.738831,11.457397l-5.401184,5.13446l-8.57019,-0.61792c-4.713623,-0.339874 -8.881592,-0.93985 -9.262146,-1.333313c-0.380554,-0.393463 1.551208,-3.240051 4.292908,-6.325867c4.476257,-5.038147 7.127808,-7.105286 14.046143,-10.950531c1.16626,-0.648224 -0.372131,-0.721771 -3.41864,-0.163574c-4.6828,0.858124 -6.623291,1.978668 -12.552002,7.247986l-7.012939,6.232941l2.459351,-5.884399c3.073059,-7.352905 6.618225,-11.732758 11.435059,-14.12735l0,0.000031z" id="path3046" fill="#ff0000"/>
    <path id="path3048" d="m-594.077148,368.250122c-0.536316,0.584961 -3.370422,2.820465 -6.297913,4.967834c-6.182739,4.535065 -9.8078,12.712891 -9.567627,21.583771c0.139221,5.139282 9.818054,36.406769 11.415466,36.877472c0.365662,0.107819 0.344238,-1.748718 -0.047607,-4.125549c-0.859253,-5.212036 2.457458,-11.359467 10.745972,-19.917175c8.757874,-9.042419 11.200928,-13.104614 11.533875,-19.17807c0.344849,-6.292053 -4.300659,-20.558136 -6.333313,-19.448883c-2.935486,1.601654 -13.020691,16.93808 -14.750244,22.429962c-2.15332,6.837738 -3.446777,5.781372 -2.697632,-2.203156c0.339661,-3.620056 2.774231,-8.880554 6.961975,-15.042999c3.541809,-5.211914 6.543701,-9.820313 6.670898,-10.240845c0.272644,-0.901825 -6.215576,2.750946 -7.633789,4.297729l-0.000061,-0.000092z" fill="#ff0000"/>
    <path d="m-632.707642,331.405182c-0.712769,0.206421 -3.982056,0.592163 -7.264893,0.857513c-6.933228,0.560394 -14.207214,5.431946 -19.198303,12.857483c-2.891418,4.301941 -14.346252,35.007385 -13.509949,36.21463c0.191467,0.276337 1.256042,-1.262878 2.365723,-3.420471c2.433472,-4.731384 8.312622,-8.089783 19.048035,-10.88089c11.343445,-2.949249 15.403076,-5.039459 19.165833,-9.868134c3.898132,-5.002502 8.965027,-19.129913 6.907593,-19.259888c-2.971069,-0.187927 -18.896545,7.261261 -23.291626,10.894501c-5.472107,4.523621 -5.756714,2.990295 -0.593567,-3.197937c2.340942,-2.805664 7.09137,-5.886597 13.584534,-8.810364c5.491638,-2.472778 10.257141,-4.72583 10.590027,-5.006744c0.713806,-0.602509 -5.91864,-0.925079 -7.803528,-0.379608l0.000061,-0.000092l0.000061,0z" id="path3050" fill="#ff0000"/>
    <path id="path3775" d="m-42.615929,347.215149c0,1.772064 -1.436562,3.208618 -3.20863,3.208618c-1.772083,0 -3.208633,-1.436554 -3.208633,-3.208618c0,-1.772095 1.43655,-3.208649 3.208633,-3.208649c1.772068,0 3.20863,1.436554 3.20863,3.208649z" fill="#ff0000"/>
    <path id="path3813" d="m212.5,494.424835c-29.130005,0 -52.75,23.620026 -52.75,52.750031c0,29.130005 23.619995,52.75 52.75,52.75c29.130005,0 52.75,-23.619995 52.75,-52.75c0,-29.130005 -23.619995,-52.750031 -52.75,-52.750031zm0,23.093781c16.386047,0 29.65625,13.270203 29.65625,29.65625c0,16.385986 -13.270203,29.65625 -29.65625,29.65625c-16.386047,0 -29.6875,-13.270264 -29.6875,-29.65625c0,-16.386047 13.301453,-29.65625 29.6875,-29.65625z" fill="#ff0000"/>
    <path d="m475.022339,696.118652c7.26709,-7.961182 15.727051,-10.22345 40.3302,-10.784546l10.151428,-0.231506l-5.212524,2.261719c-6.63147,2.877502 -10.125641,7.361755 -15.43631,19.810242c-6.823761,15.995361 -10.776733,21.39917 -18.001251,24.608276c-3.436401,1.526428 -9.165771,2.680664 -12.731964,2.564941l-6.484009,-0.210449l0.96051,-2.749329c1.553589,-4.445435 12.104065,-21.800232 15.43811,-25.394653c1.688293,-1.820129 4.524353,-4.225525 6.302368,-5.345398l3.232727,-2.036072l-4.279388,1.22937c-8.395233,2.411804 -16.11087,10.922302 -24.56424,27.09491l-2.818085,5.391418l1.020966,-5.54834c2.133636,-11.595154 7.797119,-25.956543 12.091187,-30.660767l0,0l0.000275,0.000183z" id="path3948" fill="#ff0000"/>
    <path d="m222.714569,662.721924c-30.110153,0 -54.52272,24.412598 -54.52272,54.522766c0,30.110168 24.412567,54.522705 54.52272,54.522705c30.110199,0 54.522736,-24.412537 54.522736,-54.522705c0,-30.110168 -24.412537,-54.522766 -54.522736,-54.522766zm0,16.249817c21.135025,0 38.272949,17.137939 38.272949,38.272949c0,21.13501 -17.137924,38.240479 -38.272949,38.240479c-21.13501,0 -38.272934,-17.105469 -38.272934,-38.240479c0,-21.13501 17.137924,-38.272949 38.272934,-38.272949z" id="path3956" fill="#ff0000"/>
    <path d="m222.714569,684.193726c-18.239822,0 -33.050964,14.811157 -33.050964,33.050964c0,18.239807 14.811142,33.018494 33.050964,33.018494c18.239822,0 33.018524,-14.778687 33.018524,-33.018494c0,-18.239807 -14.778702,-33.050964 -33.018524,-33.050964zm0,15.211853c9.843735,0 17.806656,7.995361 17.806656,17.839111c0,9.843689 -7.962921,17.806641 -17.806656,17.806641c-9.843674,0 -17.839096,-7.962952 -17.839096,-17.806641c0,-9.84375 7.995422,-17.839111 17.839096,-17.839111z" id="path3958" fill="#ff0000"/>
    <path id="path3960" d="m452.057587,766.436584c-12.571777,4.533813 -17.763275,12.451294 -24.749115,37.743591l-2.882538,10.435608l4.368927,-4.551086c5.557648,-5.790222 12.487366,-7.722778 30.61261,-8.537842c23.28949,-1.047363 31.574615,-3.109314 37.729767,-9.38916c2.927917,-2.987 5.934296,-8.491455 6.681335,-12.231628l1.358002,-6.800659l-3.949249,-0.040222c-6.385803,-0.064209 -32.451447,4.334106 -38.140839,6.436035c-2.880981,1.064331 -6.841644,3.098022 -8.801422,4.519104l-3.563049,2.584045l2.740662,-3.972961c5.37677,-7.793823 18.802521,-12.585632 42.743652,-15.255432l7.981079,-0.890015l-7.73764,-1.031982c-16.170502,-2.156616 -36.963623,-1.696472 -44.392181,0.982483l0,0l0,0.000122z" fill="#ff0000"/>
    <g id="g3962" transform="matrix(1.2190588,0,0,1.2190588,528.38182,-135.97733) " fill="#552200">
     <path id="path3964" d="m297.225372,689.360046c-8.649475,0 -15.652924,7.003418 -15.652924,15.652893c0,8.649475 7.003448,15.690186 15.652924,15.690186c8.649475,0 15.652924,-7.04071 15.652924,-15.690186c0,-8.649475 -7.003448,-15.652893 -15.652924,-15.652893zm0,3.018738c6.986115,0 12.634155,5.648071 12.634155,12.634155c0,6.986145 -5.648041,12.671448 -12.634155,12.671448c-6.986115,0 -12.634155,-5.685303 -12.634155,-12.671448c0,-6.986084 5.648041,-12.634155 12.634155,-12.634155z" fill="#ff0000"/>
     <path d="m302.60321,705.029053c0,2.96936 -2.407135,5.376526 -5.376495,5.376526c-2.96936,0 -5.376526,-2.407166 -5.376526,-5.376526c0,-2.96936 2.407166,-5.376526 5.376526,-5.376526c2.96936,0 5.376495,2.407166 5.376495,5.376526z" id="path3966" fill="#ff0000"/>
    </g>
    <path id="path3982" d="m701.6026,764.133972c-4.866272,4.411255 -10.744446,22.768066 -12.188599,38.063477c1.125183,-2.281799 7.15863,-6.663452 11.402466,-8.545715c8.290344,-2.759521 11.051331,-3.854187 17.820374,-7.271729c2.04718,-0.918213 5.359802,-4.169739 5.971619,-6.168152c0.56073,-1.831543 1.682251,-5.494629 1.682251,-5.494629c1.480835,-4.836792 2.498047,-9.238831 2.260437,-9.782227c-7.620056,-0.143188 -14.530273,4.330505 -20.199524,9.013306c-0.063904,-5.128845 4.081543,-8.175598 9.343018,-10.91217l8.778992,-4.381104l-6.687927,-0.008972c-8.356934,-0.010925 -13.994202,1.690369 -18.183105,5.487671l0,0l0,0.000244z" fill="#ff0000"/>
    <path id="path3984" d="m781.494263,761.531799c10.298706,5.963135 14.641418,14.404968 20.702393,40.243713l2.500793,10.661133l-3.622986,-5.015503c-4.609192,-6.380859 -10.277405,-9.107544 -25.040649,-12.045898c-18.969482,-3.775513 -25.742981,-6.789429 -30.84552,-13.725037c-2.427063,-3.29895 -4.955688,-9.096924 -5.619141,-12.884399l-1.206238,-6.886292l3.213562,0.424805c5.196045,0.687561 26.47467,8.104065 31.136169,10.852295c2.360474,1.391724 5.614014,3.86908 7.22998,5.50531l2.938232,2.974976l-2.28949,-4.252014c-4.491577,-8.341492 -15.489136,-14.660339 -35.013062,-20.117249l-6.508667,-1.819214l6.281982,-0.110535c13.128174,-0.231079 30.057373,2.669983 36.142822,6.193542l0,0l-0.000183,0.000366z" fill="#ff0000"/>
    <g transform="matrix(1.6041108,0,0,1.6041108,-198.26979,-164.61469) " id="g3994" fill="#552200">
     <path d="m539.349609,542.276672c-6.934143,0 -12.558716,5.624512 -12.558716,12.558655c0,6.934143 5.624573,12.558716 12.558716,12.558716c6.934143,0 12.558655,-5.624573 12.558655,-12.558716c0,-6.934143 -5.624512,-12.558655 -12.558655,-12.558655zm0,2.926025c5.316162,0 9.632629,4.316467 9.632629,9.632629c0,5.316223 -4.316467,9.632629 -9.632629,9.632629c-5.316162,0 -9.632629,-4.316406 -9.632629,-9.632629c0,-5.316162 4.316467,-9.632629 9.632629,-9.632629z" id="path3996" fill="#ff0000"/>
     <path id="path3998" d="m541.580383,554.83667c0,1.233887 -1.000244,2.234131 -2.234131,2.234131c-1.233826,0 -2.23407,-1.000244 -2.23407,-2.234131c0,-1.233887 1.000244,-2.234131 2.23407,-2.234131c1.233887,0 2.234131,1.000244 2.234131,2.234131z" fill="#ff0000"/>
    </g>
    <g id="g4012" transform="matrix(1.8637103,0,0,1.8637103,-502.96131,-996.94662) " fill="#008000">
     <path id="path4014" d="m297.225372,702.343018c-8.649475,0 -15.652924,7.003418 -15.652924,15.652893c0,8.649475 7.003448,15.690186 15.652924,15.690186c8.649475,0 15.652924,-7.04071 15.652924,-15.690186c0,-8.649475 -7.003448,-15.652893 -15.652924,-15.652893zm0,3.018738c6.986115,0 12.634155,5.648071 12.634155,12.634155c0,6.986145 -5.648041,12.671448 -12.634155,12.671448c-6.986115,0 -12.634155,-5.685303 -12.634155,-12.671448c0,-6.986084 5.648041,-12.634155 12.634155,-12.634155z" fill="#ff0000"/>
     <path d="m301.744385,718.012024c0,2.495056 -2.022644,4.517639 -4.51767,4.517639c-2.495056,0 -4.51767,-2.022583 -4.51767,-4.517639c0,-2.495056 2.022614,-4.5177 4.51767,-4.5177c2.495026,0 4.51767,2.022644 4.51767,4.5177z" id="path4016" fill="#ff0000"/>
    </g>
    <g transform="matrix(-2.2566658,1.9987786,-1.9987786,-2.2566658,3594.5267,553.7517) " id="g4018" fill="#008000">
     <path d="m806.549072,742.639954c-7.560486,0 -13.693054,6.132568 -13.693054,13.693054c0,7.560486 6.132568,13.693054 13.693054,13.693054c7.560486,0 13.693054,-6.132568 13.693054,-13.693054c0,-7.560486 -6.132568,-13.693054 -13.693054,-13.693054zm0,3.190369c5.796387,0 10.502686,4.706299 10.502686,10.502686c0,5.796387 -4.706299,10.502747 -10.502686,10.502747c-5.796387,0 -10.502686,-4.70636 -10.502686,-10.502747c0,-5.796387 4.706299,-10.502686 10.502686,-10.502686z" id="path4020" fill="#ff0000"/>
     <path id="path4022" d="m812.437988,756.334534c0,3.254333 -2.638184,5.892578 -5.892578,5.892578c-3.254395,0 -5.892578,-2.638245 -5.892578,-5.892578c0,-3.254395 2.638184,-5.892578 5.892578,-5.892578c3.254395,0 5.892578,2.638184 5.892578,5.892578z" fill="#ff0000"/>
    </g>
    <path d="m200.44075,383.009827c6.942444,-1.842133 26.745712,3.754852 41.062729,11.605591c1.182785,0.64856 0.331757,0.817749 -1.983917,0.394318c-3.464096,-0.633362 -5.317535,0.095001 -12.714203,4.997192c-4.762436,3.156281 -11.950668,7.808289 -15.974442,10.337036l-7.315643,4.598206l-9.409012,-2.795441c-5.174957,-1.537476 -9.675751,-3.241791 -10.001755,-3.787354c-0.325989,-0.545532 2.543991,-3.353241 6.377716,-6.23941c6.259308,-4.71225 9.736969,-6.447418 18.422272,-9.192383c1.464096,-0.462738 -0.234192,-0.921509 -3.774048,-1.019592c-5.44104,-0.150726 -7.887772,0.667572 -15.825943,5.292725l-9.389847,5.471008l4.220795,-6.177002c5.274109,-7.718506 10.329163,-11.8992 16.305313,-13.484924l0.000015,0.000031l-0.000031,0z" id="path4034" fill="#ff0000"/>
    <path id="path4036" d="m152.081528,429.105652c-4.2173,3.693848 -8.812042,18.525635 -9.527328,30.754272c-0.059097,1.010223 0.419067,0.535004 1.114655,-1.10788c1.040604,-2.457642 2.328568,-3.350159 8.835831,-6.122192c4.189728,-1.784821 10.436829,-4.523132 13.882202,-6.085754l6.264481,-2.840729l2.089767,-7.100861c1.149368,-3.905457 1.897491,-7.447449 1.66246,-7.871063c-0.235001,-0.423615 -3.380371,0.293518 -6.989731,1.593597c-5.89296,2.12262 -8.562149,3.651428 -14.139862,8.098297c-0.940277,0.749603 -0.531708,-0.513947 0.907883,-2.807983c2.212799,-3.526093 3.814941,-4.761017 10.362869,-7.987671l7.745407,-3.816772l-6.028854,0.244141c-7.53334,0.305084 -12.5495,1.87088 -16.17981,5.050598l0.000015,0.000031l0.000015,-0.000031z" fill="#ff0000"/>
    <path id="path4050" d="m595.940918,645.895508c-6.574219,1.165222 -45.357178,17.414307 -45.663513,19.131958c-0.062622,0.35083 2.500488,0.218872 5.695679,-0.293274c7.550354,-1.210083 17.417053,3.404907 31.386597,14.680603c5.85144,4.723145 13.055481,9.018494 16.008911,9.545288c6.683472,1.192078 20.775269,-2.648132 27.157227,-7.400818l4.807129,-3.579834l-12.198181,-7.437561c-6.708984,-4.090698 -15.811829,-8.108704 -20.228577,-8.929016c-6.578796,-1.221741 -7.344727,-1.741821 -4.237427,-2.876831c6.563599,-2.397461 19.152466,0.950928 30.568604,8.130676c6.055725,3.808472 10.874878,6.20636 10.709106,5.328613c-0.593933,-3.146301 -14.838318,-18.838257 -20.333191,-22.399597c-6.931702,-4.492676 -13.875122,-5.636658 -23.672363,-3.900208z" fill="#ff0000"/>
    <path d="m353.478882,588.914246c-11.702972,-2.159302 -20.489319,1.435669 -41.886017,17.137756l-8.82843,6.47876l6.012939,-1.458252c7.649719,-1.855164 13.730011,-0.244629 26.861053,7.114807c16.872284,9.456299 23.97934,11.566711 32.364563,9.610413c3.988464,-0.930481 9.677948,-3.69458 12.643311,-6.142395l5.39151,-4.450623l-2.718719,-1.765137c-4.396362,-2.85376 -25.38974,-11.042908 -30.718811,-11.98291c-2.698547,-0.476013 -6.781342,-0.70697 -9.072906,-0.513306l-4.166473,0.352112l4.503204,-1.744324c8.83429,-3.421936 21.299622,-1.078918 39.685944,7.459595l6.129395,2.846436l-4.703186,-4.166016c-9.828796,-8.706177 -24.582031,-17.501343 -31.497223,-18.777283l0,0l-0.000153,0.000366z" id="path4063" fill="#ff0000"/>
    <g id="g4067" transform="matrix(1.6041109,0,0,1.6041109,-490.4766,-222.2339) " fill="#552200">
     <path id="path4069" d="m539.349609,542.276672c-6.934143,0 -12.558716,5.624512 -12.558716,12.558655c0,6.934143 5.624573,12.558716 12.558716,12.558716c6.934143,0 12.558655,-5.624573 12.558655,-12.558716c0,-6.934143 -5.624512,-12.558655 -12.558655,-12.558655zm0,2.926025c5.316162,0 9.632629,4.316467 9.632629,9.632629c0,5.316223 -4.316467,9.632629 -9.632629,9.632629c-5.316162,0 -9.632629,-4.316406 -9.632629,-9.632629c0,-5.316162 4.316467,-9.632629 9.632629,-9.632629z" fill="#ff0000"/>
     <path d="m543.356262,554.83667c0,2.214661 -1.795349,4.01001 -4.01001,4.01001c-2.214661,0 -4.009949,-1.795349 -4.009949,-4.01001c0,-2.214661 1.795288,-4.009949 4.009949,-4.009949c2.214661,0 4.01001,1.795288 4.01001,4.009949z" id="path4071" fill="#ff0000"/>
    </g>
    <path d="m442.244904,625.583801c9.287811,5.377808 13.204224,12.990967 18.670227,36.293396l2.255371,9.614685l-3.267395,-4.523193c-4.156769,-5.754517 -9.268616,-8.213562 -22.582642,-10.863525c-17.107483,-3.404846 -23.216095,-6.122925 -27.81781,-12.377747c-2.188812,-2.975159 -4.469238,-8.203979 -5.067566,-11.619751l-1.08783,-6.210327l2.898102,0.383118c4.686035,0.620056 23.875977,7.308594 28.079895,9.787048c2.128784,1.255127 5.062927,3.489319 6.520325,4.964966l2.649811,2.682922l-2.064789,-3.834656c-4.050659,-7.522705 -13.96875,-13.221313 -31.576233,-18.142578l-5.869751,-1.640625l5.665344,-0.09967c11.839539,-0.208374 27.106964,2.407898 32.595062,5.585632l0,0l-0.000122,0.000305z" id="path4083" fill="#ff0000"/>
   </g>
  </g>
 </g>
</svg>